{"title":"Zoom 2006 DVDrip English Klam","uid":6564540,"size":1425529571,"categoryP":"video","categoryS":"movies","magnet":"?xt=urn:btih:3150ad3797747f71bcdab7d4ef4fe0a97a7d0191&amp;dn=Zoom+2006+DVDrip+English+Klam&amp;tr=udp%3A%2F%2Ftracker.openbittorrent.com%3A80&amp;tr=udp%3A%2F%2Fopen.demonii.com%3A1337&amp;tr=udp%3A%2F%2Ftracker.coppersurfer.tk%3A6969&amp;tr=udp%3A%2F%2Fexodus.desync.com%3A6969","seeders":4,"leechers":4,"uploader":"Klambake","files":-1,"time":1311620644,"description":"With: Tim Allen, Courteney Cox and Chevy Chase\n\nCaptain Zoom is een voormalig superheld die tegenwoordig gewoon als Jack door het leven gaat. Hij wordt overgehaald opnieuw actief te worden en een groep rebelse kinderen op te leiden tot superhelden op een privÃƒÂ©-academie.\n\nFormer superhero Jack is called back to work to transform an unlikely group of ragtag kids into superheroes at a private Academy. \n\n------------------ Dutch Friends ------------------\nYou can find my Friends at: http://www.Film-Test.nl \n------ They got my dutchs subs ---- and more ------\n\nGeneral:\n\nComplete name                    : Zoom\\Zoom.avi\nFormat                           : AVI\nFormat/Info                      : Audio Video Interleave\nFile size                        : 1.32 GiB\nDuration                         : 1h 22mn\nOverall bit rate                 : 2 313 Kbps\n\nVideo:\n\nFormat                           : MPEG-4 Visual\nFormat profile                   : Simple@L3\nFormat settings, BVOP            : No\nFormat settings, QPel            : No\nFormat settings, GMC             : No warppoints\nFormat settings, Matrix          : Default (H.263)\nCodec ID                         : XVID\nCodec ID/Hint                    : XviD\nDuration                         : 1h 22mn\nBit rate                         : 1 854 Kbps\nWidth                            : 652 pixels\nHeight                           : 352 pixels\nDisplay aspect ratio             : 1.852\nFrame rate                       : 25.000 fps\nColor space                      : YUV\nChroma subsampling               : 4:2:0\nBit depth                        : 8 bits\nScan type                        : Progressive\nBits/(Pixel*Frame)               : 0.323\nStream size                      : 1.06 GiB (80%)\nWriting library                  : XviD 1.1.2 (UTC 2006-11-01)\n\nAudio:\n\nFormat                           : AC-3\nFormat/Info                      : Audio Coding 3\nMode extension                   : CM (complete main)\nCodec ID                         : 2000\nDuration                         : 1h 22mn\nBit rate mode                    : Constant\nBit rate                         : 448 Kbps\nChannel(s)                       : 6 channels\nChannel positions                : Front: L C R, Side: L R, LFE\nSampling rate                    : 48.0 KHz\nBit depth                        : 16 bits\nStream size                      : 263 MiB (19%)\nAlignment                        : Aligned on interleaves\nInterleave, duration             : 32 ms (0.80 video frame)\nInterleave, preload duration     : 32 ms\n\n","torrent":{"xt":"urn:btih:3150ad3797747f71bcdab7d4ef4fe0a97a7d0191","amp;dn":"Zoom+2006+DVDrip+English+Klam","amp;tr":["udp%3A%2F%2Ftracker.openbittorrent.com%3A80","udp%3A%2F%2Fopen.demonii.com%3A1337","udp%3A%2F%2Ftracker.coppersurfer.tk%3A6969","udp%3A%2F%2Fexodus.desync.com%3A6969"],"infoHash":"3150ad3797747f71bcdab7d4ef4fe0a97a7d0191","infoHashBuffer":{"type":"Buffer","data":[49,80,173,55,151,116,127,113,188,218,183,212,239,79,224,169,122,125,1,145]},"announce":[],"urlList":[]}}